<?xml version="1.0" encoding="UTF-8"?>
<!-- Generator: Adobe Illustrator 22.0.1, SVG Export Plug-In . SVG Version: 6.00 Build 0)  -->
<svg version="1.1" id="Layer_1" xmlns="http://www.w3.org/2000/svg" xmlns:xlink="http://www.w3.org/1999/xlink" x="0px" y="0px" viewBox="0 0 256 256" enable-background="new 0 0 256 256" xml:space="preserve">
<g>
	<defs>
		<path id="SVGID_1_" d="M236,256H20c-11,0-20-9-20-20V20C0,9,9,0,20,0h216c11,0,20,9,20,20v216C256,247,247,256,236,256z"/>
	</defs>
	<use xlink:href="#SVGID_1_" overflow="visible" fill="#5E57E9"/>
	<clipPath id="SVGID_2_">
		<use xlink:href="#SVGID_1_" overflow="visible"/>
	</clipPath>
</g>
<path fill-rule="evenodd" clip-rule="evenodd" fill="#FFFFFF" d="M220.9,191c0.1,3.8-3,7-6.9,7h-3c-2.1,0-3.8,1.8-3.7,3.9  c0.1,4.2-1.1,8.8-4.8,13.6c-5.1,6.8-13.3,10.5-21.8,10.5H23.2c-3.4,0-6.5-2.4-7.1-5.8c-0.7-4.3,2.6-8.1,6.8-8.1h19.6  c2.2,0,4-1.9,3.7-4.1c-0.2-1.9-0.3-3.8,0-5.7c0.4-2.3-1.3-4.3-3.6-4.3c-5.5,0-14.5,0-19.4,0c-3.8,0-7-3-7.1-6.7c-0.1-3.8,3-7,6.9-7  h29c1.2,0,2.4-0.6,3.1-1.6c0.9-1.4,2-2.9,3.1-4.4c1.8-2.5,0-5.9-3-5.9c-0.1,0-0.3,0-0.4,0c-3.8,0-7-3-7.1-6.7c-0.1-3.8,3-7,6.9-7  h20.1c0,0,0,0,0,0l11.6-12c2-2.1,4.8-3.2,7.7-3.2h22.8c3.8,0,7-3,7.1-6.7c0.1-3.8-3-7-6.9-7h-5.6c-3.3,0-4.9-3.9-2.7-6.3l35.7-36.9  c3-3.1,4.6-6,4.6-8.5c0-4.9-3.8-6.7-11-6.7H57c-3.8,0-7.1-3-7.1-6.8c-0.1-3.9,3-7,6.9-7h11.1c3.4,0,6.4-2.3,7-5.6  c0.8-4.3-2.6-8.3-6.8-8.3H56.3c-3.9-0.2-7-3.7-6.4-7.8c0.5-3.4,3.6-5.8,7-5.8h175.6c3.8,0,7,3,7.1,6.7c0.1,3.8-3,7-6.9,7h-4  c-2.3,0-4,2-3.7,4.2c1.1,7.5-1.4,20-14.5,33.6l-85.5,88.1c-6.9,7.2-5.7,13.2,2.1,14.7c0,0,0,0,0,0h86.5  C217.6,184.3,220.8,187.2,220.9,191z"/>
</svg>